# xmcd
#
# Track frame offsets: 
#        150
#        17428
#        36874
#        50386
#        67244
#        88177
#        104318
#        125175
#        143201
#        168407
#        184219
#        201175
#        218901
#        243075
#        265415
#
# Disc length: 3686 seconds
#
# Revision: 7
# Processed by: cddbd v1.5.2PL0 Copyright (c) Steve Scherf et al.
# Submitted via: ExactAudioCopy v0.99pb5
#
DISCID=e10e640f
DTITLE=Various Artist - Nu Jazz Anthology CD4 - The New School
DYEAR=2007
DGENRE=Nu-Jazz
TTITLE0=Stacey Kent and Jan Lundgren Trio - Street Of Dreams (2001)
TTITLE1=Norah Jones and Joel Harrison - Tennessee Waltz
TTITLE2=Jamie Lidell - What Is It This Time? (2005)
TTITLE3=Koop feat Yukimi Nagano - Summer Sun [Original Version] (2006)
TTITLE4=Fertile Ground - Take Me Higher (2002)
TTITLE5=Matthias Vogt Trio feat Dania König - Expecting Repercussions 
TTITLE5=(2005)
TTITLE6=Beady Belle - Game (2001)
TTITLE7=Quantic - The Sound Of Everything (2004)
TTITLE8=TM Juke - Playground Game [Diesler Mix] (2003)
TTITLE9=Kinny and Horne - Forgetting To Remember [Nostalgia 77 Mix] (200
TTITLE9=5)
TTITLE10=The Quantic Soul Orchestra feat Alice Russell - Feeling Good 
TTITLE10=(2005)
TTITLE11=Slow Train - Naturally (2003)
TTITLE12=Beat Assailant - Hard Twelve (The Payout) (2005)
TTITLE13=The Rongetz Foundation - Almost (2006)
TTITLE14=Skalpel - 1958 (2004)
EXTD=YEAR: 2007
EXTT0=
EXTT1=
EXTT2=
EXTT3=
EXTT4=
EXTT5=
EXTT6=
EXTT7=
EXTT8=
EXTT9=
EXTT10=
EXTT11=
EXTT12=
EXTT13=
EXTT14=
PLAYORDER=
